<svg t="1685792917187" class="icon" viewBox="0 0 1024 1024" version="1.1" xmlns="http://www.w3.org/2000/svg" p-id="1614" width="200" height="200"><path d="M853.333333 170.666667a73.142857 73.142857 0 0 1 73.142857 73.142857v536.380952a73.142857 73.142857 0 0 1-73.142857 73.142857H170.666667a73.142857 73.142857 0 0 1-73.142857-73.142857V243.809524a73.142857 73.142857 0 0 1 73.142857-73.142857h682.666666z m0 73.142857H170.666667v536.380952h682.666666V243.809524z m-395.264 85.699047l10.337524 72.411429-13.116952 1.852952 1.219047 1.77981-30.354285 20.406857-6.192762 4.437333c-31.817143 24.112762-50.712381 60.65981-50.712381 100.156953 0 56.612571 39.033905 106.300952 95.402666 122.489905l35.157334 10.069333-20.163048 70.314667-35.157333-10.093715c-87.161905-24.990476-148.382476-102.912-148.382476-192.78019 0-39.448381 11.800381-76.970667 32.889904-108.739048l-31.256381 4.486095-10.337523-72.411428 170.666666-24.380953z m77.628953-9.020952l35.157333 10.069333c87.161905 25.014857 148.382476 102.936381 148.382476 192.804572a196.047238 196.047238 0 0 1-29.842285 104.009143l36.864-5.290667 10.337523 72.411429-170.666666 24.380952-10.337524-72.411429 7.631238-1.097142 25.941333-17.432381 6.192762-4.412953c31.841524-24.137143 50.736762-60.65981 50.736762-100.156952 0-56.612571-39.058286-106.300952-95.427048-122.489905l-35.132952-10.093714 20.163048-70.290286z" p-id="1615"></path></svg>