<svg t="1685785318761" class="icon" viewBox="0 0 1024 1024" version="1.1" xmlns="http://www.w3.org/2000/svg" p-id="1922" width="200" height="200"><path d="M487.7 567.2l-374-373.8c13.2-7.6 28.6-11.5 44.6-11.5h707.6c20.1 0 39.6 6.5 55.6 18.4l-367.3 367c-8.7 9-20.5 13.6-33.2 13.6-12.7 0-24.5-4.8-33.3-13.7z m-106.1-39.4l-288.3 288c-18.2-17-29.5-41.3-29.5-67.9V276.2c0-18.9 5.7-36.3 15.1-51l302.7 302.6z" fill="" p-id="1923"></path><path d="M901.2 835.2c-10.8 4.7-22.9 7.1-35.3 7.1H158.3c-7.6 0-14.8-0.9-21.9-2.6l278.5-278.5 39.4 39.4c18.4 18.4 42.5 27.6 66.7 27.6 24.3 0 48.4-9.2 66.7-27.6l39.4-39.4 274.1 274z m58.9-559v471.7c0 21.4-7.3 42.1-20.8 58.8L660.6 527.8 951.2 237c5.8 11.8 8.9 25.2 8.9 39.2z" fill="" p-id="1924"></path></svg>