<svg t="1685785284427" class="icon" viewBox="0 0 1024 1024" version="1.1" xmlns="http://www.w3.org/2000/svg" p-id="1614" width="200" height="200"><path d="M151.36 379.52h138.88V880H151.36zM707.84 379.2A168 168 0 0 0 541.12 480v-100.48h-138.88V880h138.88v-283.52s27.84-103.04 103.36-103.04a101.12 101.12 0 0 1 111.04 103.04v283.52H896v-352c0-148.48-160-148.8-188.16-148.8zM220.16 144A89.28 89.28 0 0 0 128 231.68 89.28 89.28 0 0 0 220.16 320a89.6 89.6 0 0 0 91.2-88.32A89.6 89.6 0 0 0 220.16 144z" p-id="1615"></path></svg>