<svg t="1685792745138" class="icon" viewBox="0 0 1024 1024" version="1.1" xmlns="http://www.w3.org/2000/svg" p-id="1460" width="200" height="200"><path d="M713.703619 723.309714c1.414095 0 2.80381 0.048762 4.193524 0.121905l-4.193524-0.121905a63.658667 63.658667 0 0 1 15.457524 1.901715l1.243428 0.341333a62.317714 62.317714 0 0 1 31.402667 20.187428 63.097905 63.097905 0 0 1 13.409524 27.794286 62.805333 62.805333 0 1 1-123.075048-0.024381l0.24381-1.145905 0.633905-2.535619-0.853334 3.705905a62.366476 62.366476 0 0 1 19.334095-33.938286 63.073524 63.073524 0 0 1 33.792-15.725714 62.902857 62.902857 0 0 1 8.411429-0.560762z m-401.92 0c1.414095 0 2.80381 0.048762 4.193524 0.121905l-4.193524-0.121905a63.658667 63.658667 0 0 1 25.380571 5.339429 62.268952 62.268952 0 0 1 22.723048 17.066667 63.097905 63.097905 0 0 1 13.433905 27.794285 62.805333 62.805333 0 1 1-123.075048-0.024381l0.24381-1.121524 0.609524-2.535619-0.853334 3.705905a62.366476 62.366476 0 0 1 17.091048-31.817143 63.24419 63.24419 0 0 1 32.060952-17.188571 62.659048 62.659048 0 0 1 4.510476-0.731429l3.559619-0.341333c1.511619-0.097524 2.925714-0.146286 4.315429-0.146286zM902.095238 487.619048h73.142857v73.142857h-73.142857v139.629714a73.142857 73.142857 0 0 1-73.142857 73.142857h-4.388571a111.37219 111.37219 0 0 0-39.472762-73.142857H828.952381L828.928 560.761905H755.809524v-73.142857h146.285714zM828.952381 170.666667a73.142857 73.142857 0 0 1 73.142857 73.142857v195.047619l-24.380952-0.024381L658.285714 438.857143v-73.142857h170.642286L828.952381 243.809524H372.370286l-0.048762 165.473524h1.145905v199.875047L146.285714 609.133714 146.285714 700.391619h94.086096a111.37219 111.37219 0 0 0-39.448381 73.142857H146.285714a73.142857 73.142857 0 0 1-73.142857-73.142857v-202.727619a73.142857 73.142857 0 0 1 47.469714-68.486095l178.590477-66.974476V243.809524a73.142857 73.142857 0 0 1 73.142857-73.142857H828.952381z m-186.660571 529.700571a111.37219 111.37219 0 0 0-39.448381 73.142857h-180.199619a111.37219 111.37219 0 0 0-39.472762-73.142857h259.120762zM300.324571 439.881143L146.285714 497.664l-0.024381 38.326857h154.087619l-0.024381-96.109714z" p-id="1461"></path></svg>